<svg xmlns="http://www.w3.org/2000/svg" xmlns:xlink="http://www.w3.org/1999/xlink" height="800" width="1200" viewBox="-152.05755 -253.424 1317.8321 1520.544"><linearGradient y2="984.588" y1="-54.648" x2="1001.25" x1="-74.197" gradientUnits="userSpaceOnUse" id="e"><stop stop-color="#dff4ff" offset="0"/><stop stop-color="#d6eaf5" offset=".098"/><stop stop-color="#bfd0d9" offset=".268"/><stop stop-color="#98a5ac" offset=".488"/><stop stop-color="#646b6e" offset=".747"/><stop stop-color="#2b2b2b" offset="1"/></linearGradient><radialGradient r="720.108" gradientUnits="userSpaceOnUse" cy="33.522" cx="-6.317" id="f"><stop stop-color="#fff" offset="0"/><stop stop-color="#a8a8a8" offset=".306"/><stop stop-color="#4f4f4f" offset=".646"/><stop stop-color="#161616" offset=".885"/><stop offset="1"/></radialGradient><linearGradient y2="966.733" y1="304.847" x2="738.989" x1="54.041" gradientUnits="userSpaceOnUse" gradientTransform="rotate(180 465.488 584.653)" id="g"><stop stop-color="#dff4ff" offset="0"/><stop stop-color="#d6eaf5" offset=".086"/><stop stop-color="#bed0d9" offset=".233"/><stop stop-color="#96a4ac" offset=".424"/><stop stop-color="#5f686d" offset=".652"/><stop stop-color="#1a1d1e" offset=".907"/><stop offset="1"/></linearGradient><linearGradient id="a"><stop stop-color="#fff" offset="0"/><stop stop-color="#fdfdfd" offset=".31"/><stop stop-color="#f6f6f6" offset=".451"/><stop stop-color="#e9e9e9" offset=".557"/><stop stop-color="#d7d7d7" offset=".646"/><stop stop-color="#bfbfbf" offset=".724"/><stop stop-color="#a2a2a2" offset=".794"/><stop stop-color="gray" offset=".859"/><stop stop-color="#575757" offset=".92"/><stop stop-color="#2b2b2b" offset=".975"/><stop stop-color="#141414" offset="1"/></linearGradient><radialGradient xlink:href="#a" r="1730.313" gradientUnits="userSpaceOnUse" cy="-39.812" cx="-135.647" id="h"/><radialGradient xlink:href="#a" r="1730.461" gradientUnits="userSpaceOnUse" cy="-39.812" cx="-135.723" id="i"/><radialGradient xlink:href="#a" r="1731.787" gradientUnits="userSpaceOnUse" cy="-40.32" cx="-135.817" id="j"/><linearGradient id="b"><stop stop-color="#e6e6e6" offset="0"/><stop stop-color="#d6d6d6" offset=".104"/><stop stop-color="#adadad" offset=".307"/><stop stop-color="#6c6c6c" offset=".588"/><stop stop-color="#121212" offset=".933"/><stop offset="1"/></linearGradient><radialGradient xlink:href="#b" r="466.718" gradientUnits="userSpaceOnUse" cy="200.075" cx="174.253" id="k"/><radialGradient r="678.742" gradientUnits="userSpaceOnUse" cy="262.848" cx="301.906" id="l"><stop stop-color="#fff" offset="0"/><stop stop-color="#fdfdfd" offset=".344"/><stop stop-color="#f6f6f6" offset=".481"/><stop stop-color="#eaeaea" offset=".582"/><stop stop-color="#d8d8d8" offset=".665"/><stop stop-color="#c2c2c2" offset=".737"/><stop stop-color="#a6a6a6" offset=".802"/><stop stop-color="#848484" offset=".86"/><stop stop-color="#5f5f5f" offset=".913"/><stop stop-color="#404040" offset=".949"/><stop stop-color="#404040" offset=".957"/><stop stop-color="#404040" offset="1"/><stop offset="1"/></radialGradient><linearGradient id="c"><stop stop-color="#fff" offset=".169"/><stop stop-color="#e0eff7" offset=".196"/><stop stop-color="#b2d9ec" offset=".241"/><stop stop-color="#8bc5e2" offset=".287"/><stop stop-color="#6bb5da" offset=".335"/><stop stop-color="#52a9d4" offset=".384"/><stop stop-color="#41a0cf" offset=".436"/><stop stop-color="#369bcd" offset=".491"/><stop stop-color="#39c" offset=".556"/><stop stop-color="#3396c8" offset=".606"/><stop stop-color="#328ebc" offset=".655"/><stop stop-color="#3180a8" offset=".705"/><stop stop-color="#2f6d8c" offset=".754"/><stop stop-color="#2d5468" offset=".803"/><stop stop-color="#2a373d" offset=".851"/><stop stop-color="#292929" offset=".871"/></linearGradient><radialGradient xlink:href="#c" r="1202.06" gradientUnits="userSpaceOnUse" cy="5.56" cx="102.618" id="m"/><radialGradient xlink:href="#c" r="1202.037" gradientUnits="userSpaceOnUse" cy="5.551" cx="102.618" id="n"/><radialGradient xlink:href="#b" r="457.773" gradientUnits="userSpaceOnUse" cy="205.954" cx="180.627" id="o"/><linearGradient id="d"><stop stop-color="#f0f4ff" offset="0"/><stop stop-color="#ebeff9" offset=".109"/><stop stop-color="#dce0ea" offset=".247"/><stop stop-color="#c4c7cf" offset=".403"/><stop stop-color="#a2a4ab" offset=".57"/><stop stop-color="#76777c" offset=".747"/><stop stop-color="#414243" offset=".929"/><stop stop-color="#2b2b2b" offset="1"/></linearGradient><linearGradient y2="523.042" y1="91.655" xlink:href="#d" x2="893.253" x1="446.835" gradientUnits="userSpaceOnUse" id="p"/><linearGradient y2="887.265" y1="455.87" xlink:href="#d" x2="530.914" x1="84.488" gradientUnits="userSpaceOnUse" id="q"/><linearGradient y2="525.736" y1="302.041" x2="531.948" x1="300.459" gradientUnits="userSpaceOnUse" id="r"><stop stop-color="#c2d7e8" offset="0"/><stop stop-color="#bacfe1" offset=".134"/><stop stop-color="#a4bacd" offset=".343"/><stop stop-color="#8098ac" offset=".6"/><stop stop-color="#4e697f" offset=".894"/><stop stop-color="#3a566d" offset="1"/></linearGradient><linearGradient y2="783.908" y1="356.854" x2="626.458" x1="184.524" gradientUnits="userSpaceOnUse" id="s"><stop stop-color="#f0f4ff" offset="0"/><stop stop-color="#e8ebf6" offset=".097"/><stop stop-color="#d1d4dd" offset=".257"/><stop stop-color="#abaeb5" offset=".459"/><stop stop-color="#78797d" offset=".695"/><stop stop-color="#363637" offset=".958"/><stop stop-color="#2b2b2b" offset="1"/></linearGradient><linearGradient y2="665.066" y1="515.267" x2="665.275" x1="510.257" gradientUnits="userSpaceOnUse" id="t"><stop stop-color="#d9def0" offset="0"/><stop stop-color="#d4daec" offset=".123"/><stop stop-color="#c7cfe2" offset=".263"/><stop stop-color="#b0bcd1" offset=".411"/><stop stop-color="#90a1b8" offset=".566"/><stop stop-color="#677f99" offset=".725"/><stop stop-color="#355674" offset=".885"/><stop stop-color="#173d5d" offset=".972"/></linearGradient><linearGradient y2="621.367" y1="194.776" xlink:href="#d" x2="793.132" x1="351.678" gradientUnits="userSpaceOnUse" id="u"/><path fill="url(#e)" d="M506.86 0C226.94 0 0 226.918 0 506.848c0 279.926 226.94 506.848 506.86 506.848 279.94 0 506.857-226.922 506.857-506.848C1013.718 226.918 786.801 0 506.86 0zm0 988.352c-265.939 0-481.495-215.574-481.495-481.504 0-265.927 215.556-481.512 481.495-481.512 265.937 0 481.511 215.584 481.511 481.512 0 265.93-215.574 481.504-481.511 481.504z"/><path fill="#333" d="M992.003 506.848c0 267.914-217.227 485.133-485.143 485.133-267.919 0-485.123-217.219-485.123-485.133 0-267.929 217.204-485.133 485.123-485.133 267.916 0 485.143 217.204 485.143 485.133z"/><path fill="url(#f)" d="M988.371 506.848c0 265.93-215.574 481.504-481.511 481.504-265.939 0-481.495-215.574-481.495-481.504 0-265.927 215.556-481.512 481.495-481.512 265.937 0 481.511 215.585 481.511 481.512z"/><path fill="url(#g)" d="M829.676 506.848c0 178.28-144.53 322.803-322.815 322.803-178.289 0-322.819-144.522-322.819-322.803 0-178.289 144.53-322.816 322.819-322.816 178.285 0 322.815 144.528 322.815 322.816z"/><path d="M553.324 175.308h25.468V48.021h-38.274l-34.814 91.136h.331l-34.812-91.136h-38.276v127.287h25.469V86.431l33.533 88.877h27.841l33.534-88.877zm340.822 86.908l18.538 22.231-107.569 54.012-21.736-26.315 41.698-62.869-.247-.31-69.357 29.686-21.984-26.138 72.532-96.044 18.542 22.243-45.417 61.159 70.287-31.349 19.88 23.862-43.515 63.447z"/><path fill="#333" d="M281.427 208.068c-10.251-9.951-26.069-12.951-40.939-3.733 2.847-7.363 1.691-14.858.186-19.015-6.414-11.662-8.662-13.137-13.899-17.561-17.097-14.324-35.082-2.093-47.93 13.219l-62.116 74.028 97.651 81.925 65.5-78.047c14.971-17.838 17.282-35.523 1.547-50.816zm-126.321 35.7l37.311-44.464c4.33-5.146 14.106-4.94 20.375.341 6.908 5.795 6.928 14.002 2.289 19.54l-36.896 43.95zm102.934 7.393l-38.896 46.353-24.355-20.47 39.185-46.711c4.434-5.281 14.313-6.817 20.974-1.229 7.505 6.312 8.247 15.912 3.092 22.057z"/><path fill="url(#h)" d="M553.592 170.39h25.471V43.103h-38.279l-34.811 91.133h.33l-34.812-91.133h-38.279V170.39h25.471V81.515l33.535 88.875h27.842l33.532-88.875z"/><path fill="url(#i)" d="M894.413 253.667l18.521 22.242-107.554 54.012-21.735-26.325 41.7-62.861-.245-.319-69.38 29.698-21.961-26.151 72.532-96.033 18.539 22.234-45.411 61.158 70.261-31.337 19.883 23.859-43.496 63.449z"/><path fill="url(#j)" d="M276.868 205.563c-10.23-9.951-26.069-12.953-40.916-3.743 2.824-7.364 1.67-14.86.166-18.996-6.415-11.682-8.642-13.137-13.923-17.57-17.096-14.333-35.059-2.095-47.887 13.231l-62.139 74.016 97.653 81.926 65.499-78.059c14.953-17.839 17.282-35.512 1.547-50.805zm-126.317 35.698l37.307-44.453c4.312-5.155 14.086-4.949 20.376.319 6.909 5.806 6.93 14.023 2.268 19.54l-36.873 43.959zm102.952 7.393l-38.896 46.352-24.398-20.47 39.207-46.721c4.433-5.269 14.291-6.806 20.953-1.216 7.547 6.32 8.29 15.9 3.134 22.055z"/><path fill="url(#k)" d="M194.788 506.852c0-172.358 139.724-312.082 312.073-312.082 172.367 0 312.072 139.724 312.072 312.082 0 172.351-139.705 312.071-312.072 312.071-172.35 0-312.073-139.72-312.073-312.071z"/><path fill="url(#l)" d="M203.759 506.852c0-167.399 135.702-303.112 303.102-303.112 167.4 0 303.12 135.712 303.12 303.112 0 167.401-135.721 303.113-303.12 303.113S203.759 674.253 203.759 506.852z"/><path fill="url(#m)" d="M203.284 506.852H506.86V203.277c-167.669 0-303.576 135.908-303.576 303.575z"/><path fill="url(#n)" d="M506.86 506.852v303.579c167.667 0 303.576-135.933 303.576-303.579z"/><path fill="url(#o)" d="M512.242 200.75h-10.766v300.708H200.768v10.767h300.708v300.717h10.766V512.225H812.95v-10.767H512.242z"/><path fill="url(#p)" d="M512.242 209.267c160.141 2.848 289.366 132.062 292.232 292.191h5.36c-2.863-163.099-134.482-294.736-297.593-297.583v5.392z"/><path fill="#c2d7e8" d="M208.729 501.418c2.845-160.347 132.256-289.747 292.604-292.604v-5.383c-163.336 2.856-295.12 134.669-297.987 297.986h5.383z"/><path fill="url(#q)" d="M501.476 804.433c-160.139-2.844-289.364-132.069-292.211-292.208h-5.381c2.866 163.108 134.484 294.75 297.593 297.594v-5.386z"/><path fill="#12404f" d="M804.475 512.225c-2.866 160.139-132.092 289.364-292.232 292.208v5.386c163.11-2.844 294.747-134.485 297.593-297.594z"/><path fill="url(#r)" d="M203.614 495.551v5.764h297.862V203.432h-5.752v292.119z"/><path fill="url(#s)" d="M206.029 518.391V512.7H500.92v294.295h-5.691V518.391z"/><path fill="url(#t)" d="M807.011 518.391V512.7H512.737v294.295h5.672V518.391z"/><path fill="url(#u)" d="M807.011 494.613v5.682H512.737V206.011h5.672v288.602z"/></svg>